<svg xmlns="http://www.w3.org/2000/svg" x="0px" y="0px"
width="50" height="50"
viewBox="0 0 172 172"
style=" fill:#000000;"><g fill="none" fill-rule="nonzero" stroke="none" stroke-width="1" stroke-linecap="butt" stroke-linejoin="miter" stroke-miterlimit="10" stroke-dasharray="" stroke-dashoffset="0" font-family="none" font-weight="none" font-size="none" text-anchor="none" style="mix-blend-mode: normal"><path d="M0,172v-172h172v172z" fill="none"></path><g><path d="M22.36,46.44c-1.89986,0 -3.44,1.54014 -3.44,3.44c0,1.89986 1.54014,3.44 3.44,3.44c1.89986,0 3.44,-1.54014 3.44,-3.44c0,-1.89986 -1.54014,-3.44 -3.44,-3.44z" fill="#9b59b6"></path><path d="M132.44,20.64c-0.94993,0 -1.72,0.77007 -1.72,1.72c0,0.94993 0.77007,1.72 1.72,1.72c0.94993,0 1.72,-0.77007 1.72,-1.72c0,-0.94993 -0.77007,-1.72 -1.72,-1.72z" fill="#666666"></path><path d="M86,22.36c-35.1474,0 -63.64,28.4926 -63.64,63.64c0,35.1474 28.4926,63.64 63.64,63.64c35.1474,0 63.64,-28.4926 63.64,-63.64c0,-35.1474 -28.4926,-63.64 -63.64,-63.64z" fill="#34495e"></path><path d="M142.76,18.92c-3.79972,0 -6.88,3.08028 -6.88,6.88c0,3.79972 3.08028,6.88 6.88,6.88c3.79972,0 6.88,-3.08028 6.88,-6.88c0,-3.79972 -3.08028,-6.88 -6.88,-6.88z" fill="#666666"></path><path d="M149.64,37.84c-1.89986,0 -3.44,1.54014 -3.44,3.44c0,1.89986 1.54014,3.44 3.44,3.44c1.89986,0 3.44,-1.54014 3.44,-3.44c0,-1.89986 -1.54014,-3.44 -3.44,-3.44z" fill="#9b59b6"></path><path d="M139.32,127.28c-1.89986,0 -3.44,1.54014 -3.44,3.44c0,1.89986 1.54014,3.44 3.44,3.44c1.89986,0 3.44,-1.54014 3.44,-3.44c0,-1.89986 -1.54014,-3.44 -3.44,-3.44zM25.8,101.48c-3.79972,0 -6.88,3.08028 -6.88,6.88c0,3.79972 3.08028,6.88 6.88,6.88c3.79972,0 6.88,-3.08028 6.88,-6.88c0,-3.79972 -3.08028,-6.88 -6.88,-6.88z" fill="#2ecc71"></path><path d="M43,146.2c-1.89986,0 -3.44,1.54014 -3.44,3.44c0,1.89986 1.54014,3.44 3.44,3.44c1.89986,0 3.44,-1.54014 3.44,-3.44c0,-1.89986 -1.54014,-3.44 -3.44,-3.44z" fill="#9b59b6"></path><path d="M31.82,87.72c-2.37482,0 -4.3,1.92518 -4.3,4.3c0,2.37482 1.92518,4.3 4.3,4.3c2.37482,0 4.3,-1.92518 4.3,-4.3c0,-2.37482 -1.92518,-4.3 -4.3,-4.3z" fill="#ffffff"></path><path d="M36.12,113.52c-0.94993,0 -1.72,0.77007 -1.72,1.72c0,0.94993 0.77007,1.72 1.72,1.72c0.94993,0 1.72,-0.77007 1.72,-1.72c0,-0.94993 -0.77007,-1.72 -1.72,-1.72z" fill="#666666"></path><path d="M137.6,56.76c-0.94993,0 -1.72,0.77007 -1.72,1.72c0,0.94993 0.77007,1.72 1.72,1.72c0.94993,0 1.72,-0.77007 1.72,-1.72c0,-0.94993 -0.77007,-1.72 -1.72,-1.72z" fill="#ffffff"></path><g><path d="M45.97388,115.756c-0.90644,0 -1.71828,-0.46612 -2.17064,-1.25216c-0.45236,-0.78604 -0.4558,-1.72172 -0.00344,-2.50604l40.02612,-69.67548c0.45236,-0.78776 1.26592,-1.25732 2.1758,-1.25732c0.90988,0 1.72172,0.46956 2.1758,1.25732l40.02612,69.67548c0.45064,0.78432 0.44892,1.72172 -0.00344,2.50604c-0.45236,0.78432 -1.26936,1.25216 -2.17408,1.25216z" fill="#f15b6c"></path><path d="M86,42.269c0.22704,0 0.7912,0.06364 1.13176,0.65532l40.02612,69.67376c0.33884,0.58824 0.1118,1.10768 -0.00172,1.30376c-0.11352,0.19608 -0.45064,0.65188 -1.12832,0.65188h-80.05396c-0.6794,0 -1.01652,-0.4558 -1.12832,-0.65188c-0.11352,-0.19608 -0.34056,-0.71552 -0.00172,-1.30376l40.02612,-69.67376c0.33884,-0.59168 0.903,-0.65532 1.13004,-0.65532M86,39.861c-1.25216,0 -2.50604,0.62092 -3.21984,1.86276l-40.0244,69.67376c-1.42244,2.47508 0.36464,5.56248 3.21812,5.56248h80.05052c2.8552,0 4.64056,-3.0874 3.21984,-5.56248l-40.0244,-69.67376c-0.7138,-1.24184 -1.96768,-1.86276 -3.21984,-1.86276z" fill="#472b29"></path></g><g fill="#fef6aa"><path d="M116.8912,107.89732c-0.08944,0.15824 -0.2494,0.24768 -0.42828,0.24768h-60.92584c-0.17888,0 -0.33884,-0.08944 -0.42828,-0.24768c-0.08944,-0.14964 -0.08944,-0.33712 -0.01032,-0.49536l30.46292,-53.84976c0.17888,-0.30788 0.6966,-0.30788 0.8772,0l30.46292,53.84976c0.07912,0.15824 0.07912,0.34572 -0.01032,0.49536z"></path></g><g fill="#472b29"><path d="M116.46292,108.36h-60.92584c-0.49536,0 -0.93396,-0.25456 -1.17648,-0.68112c-0.22704,-0.37152 -0.24424,-0.88064 -0.02752,-1.30548c0.21672,-0.4214 0.73616,-0.58996 1.15756,-0.37496c0.25628,0.13244 0.41968,0.37496 0.45924,0.64156h59.8904l-17.00564,-29.68204c-0.23564,-0.4128 -0.09288,-0.9374 0.31992,-1.17476c0.40936,-0.2322 0.93568,-0.09288 1.17476,0.31992l17.31868,30.23416c0.23564,0.46096 0.21844,0.96836 -0.02236,1.36568c-0.22876,0.40248 -0.66736,0.65704 -1.16272,0.65704zM116.13612,107.156h0.0172zM97.04756,72.94004c-0.29756,0 -0.58824,-0.1548 -0.7482,-0.43172l-2.71416,-4.74204c-0.23564,-0.4128 -0.09288,-0.9374 0.31992,-1.17476c0.41624,-0.23736 0.9374,-0.09288 1.17476,0.31992l2.71416,4.74204c0.23564,0.4128 0.09288,0.9374 -0.31992,1.17476c-0.13588,0.07568 -0.28208,0.1118 -0.42656,0.1118zM59.20584,100.44628c-0.14448,0 -0.29068,-0.03612 -0.42656,-0.11352c-0.4128,-0.23564 -0.55556,-0.76196 -0.31992,-1.17476l26.35384,-46.03924c0.48848,-0.82388 1.88856,-0.81184 2.36328,-0.01032l5.80328,10.11876c0.23736,0.41108 0.0946,0.9374 -0.3182,1.17304c-0.40936,0.23564 -0.9374,0.0946 -1.17304,-0.3182l-5.48852,-9.57008l-26.04596,45.5026c-0.15824,0.27692 -0.44892,0.43172 -0.7482,0.43172z"></path></g><g><path d="M86,94.79092c-1.84191,0 -3.33508,1.49317 -3.33508,3.33508c0,1.84191 1.49317,3.33508 3.33508,3.33508c1.84191,0 3.33508,-1.49317 3.33508,-3.33508c0,-1.84191 -1.49317,-3.33508 -3.33508,-3.33508z" fill="#f15b6c"></path><path d="M86,101.89108c-2.07604,0 -3.76508,-1.68904 -3.76508,-3.76508c0,-2.07604 1.68904,-3.76508 3.76508,-3.76508c2.07604,0 3.76508,1.68904 3.76508,3.76508c0,2.07604 -1.68904,3.76508 -3.76508,3.76508zM86,95.22092c-1.60132,0 -2.90508,1.30376 -2.90508,2.90508c0,1.60132 1.30376,2.90508 2.90508,2.90508c1.60132,0 2.90508,-1.30376 2.90508,-2.90508c0,-1.60132 -1.30376,-2.90508 -2.90508,-2.90508z" fill="#472b29"></path></g><g><path d="M83.78464,69.76836h4.429c0.62436,0 1.1266,0.46956 1.11112,1.0406l-0.50396,18.39368c-0.01548,0.5504 -0.5074,0.99072 -1.11112,0.99072h-3.42108c-0.60372,0 -1.09564,-0.4386 -1.11112,-0.99072l-0.50396,-18.39368c-0.01548,-0.57104 0.48676,-1.0406 1.11112,-1.0406z" fill="#f15b6c"></path><path d="M87.70968,90.62336h-3.42108c-0.8428,0 -1.51876,-0.6192 -1.54112,-1.40868l-0.50396,-18.39368c-0.01032,-0.37496 0.13416,-0.73444 0.40248,-1.01136c0.2924,-0.29928 0.70692,-0.47128 1.14036,-0.47128h4.429c0.43172,0 0.84796,0.172 1.14036,0.47128c0.27004,0.27692 0.41108,0.6364 0.40076,1.01136l-0.50224,18.39368c-0.02408,0.78948 -0.70176,1.40868 -1.54456,1.40868zM83.78464,70.19836c-0.20124,0 -0.39216,0.0774 -0.52288,0.21156c-0.10664,0.10836 -0.1634,0.24768 -0.15824,0.38872l0.50396,18.39368c0.0086,0.31476 0.31476,0.57276 0.68112,0.57276h3.42108c0.36808,0 0.67424,-0.25628 0.68112,-0.57276l0.50224,-18.39368c0.00344,-0.14104 -0.0516,-0.27864 -0.15824,-0.38872c-0.13072,-0.13416 -0.32164,-0.21156 -0.52288,-0.21156z" fill="#472b29"></path></g></g></g></svg>