<svg xmlns="http://www.w3.org/2000/svg" x="0px" y="0px"
width="50" height="50"
viewBox="0 0 172 172"
style=" fill:#000000;"><g fill="none" fill-rule="nonzero" stroke="none" stroke-width="1" stroke-linecap="butt" stroke-linejoin="miter" stroke-miterlimit="10" stroke-dasharray="" stroke-dashoffset="0" font-family="none" font-weight="none" font-size="none" text-anchor="none" style="mix-blend-mode: normal"><path d="M0,172v-172h172v172z" fill="none"></path><g><path d="M22.36,46.44c-1.89986,0 -3.44,1.54014 -3.44,3.44c0,1.89986 1.54014,3.44 3.44,3.44c1.89986,0 3.44,-1.54014 3.44,-3.44c0,-1.89986 -1.54014,-3.44 -3.44,-3.44z" fill="#9b59b6"></path><path d="M132.44,20.64c-0.94993,0 -1.72,0.77007 -1.72,1.72c0,0.94993 0.77007,1.72 1.72,1.72c0.94993,0 1.72,-0.77007 1.72,-1.72c0,-0.94993 -0.77007,-1.72 -1.72,-1.72z" fill="#666666"></path><path d="M86,22.36c-35.1474,0 -63.64,28.4926 -63.64,63.64c0,35.1474 28.4926,63.64 63.64,63.64c35.1474,0 63.64,-28.4926 63.64,-63.64c0,-35.1474 -28.4926,-63.64 -63.64,-63.64z" fill="#34495e"></path><path d="M142.76,18.92c-3.79972,0 -6.88,3.08028 -6.88,6.88c0,3.79972 3.08028,6.88 6.88,6.88c3.79972,0 6.88,-3.08028 6.88,-6.88c0,-3.79972 -3.08028,-6.88 -6.88,-6.88z" fill="#666666"></path><path d="M149.64,37.84c-1.89986,0 -3.44,1.54014 -3.44,3.44c0,1.89986 1.54014,3.44 3.44,3.44c1.89986,0 3.44,-1.54014 3.44,-3.44c0,-1.89986 -1.54014,-3.44 -3.44,-3.44z" fill="#9b59b6"></path><path d="M139.32,127.28c-1.89986,0 -3.44,1.54014 -3.44,3.44c0,1.89986 1.54014,3.44 3.44,3.44c1.89986,0 3.44,-1.54014 3.44,-3.44c0,-1.89986 -1.54014,-3.44 -3.44,-3.44zM25.8,101.48c-3.79972,0 -6.88,3.08028 -6.88,6.88c0,3.79972 3.08028,6.88 6.88,6.88c3.79972,0 6.88,-3.08028 6.88,-6.88c0,-3.79972 -3.08028,-6.88 -6.88,-6.88z" fill="#1abc9c"></path><path d="M43,146.2c-1.89986,0 -3.44,1.54014 -3.44,3.44c0,1.89986 1.54014,3.44 3.44,3.44c1.89986,0 3.44,-1.54014 3.44,-3.44c0,-1.89986 -1.54014,-3.44 -3.44,-3.44z" fill="#9b59b6"></path><path d="M31.82,87.72c-2.37482,0 -4.3,1.92518 -4.3,4.3c0,2.37482 1.92518,4.3 4.3,4.3c2.37482,0 4.3,-1.92518 4.3,-4.3c0,-2.37482 -1.92518,-4.3 -4.3,-4.3z" fill="#ffffff"></path><path d="M36.12,113.52c-0.94993,0 -1.72,0.77007 -1.72,1.72c0,0.94993 0.77007,1.72 1.72,1.72c0.94993,0 1.72,-0.77007 1.72,-1.72c0,-0.94993 -0.77007,-1.72 -1.72,-1.72z" fill="#666666"></path><path d="M137.6,56.76c-0.94993,0 -1.72,0.77007 -1.72,1.72c0,0.94993 0.77007,1.72 1.72,1.72c0.94993,0 1.72,-0.77007 1.72,-1.72c0,-0.94993 -0.77007,-1.72 -1.72,-1.72z" fill="#ffffff"></path><g><path d="M86.57276,128.30512c-21.75112,0 -38.92876,0 -38.92876,-20.26848c0,-16.51372 12.9946,-36.73576 28.37828,-44.15928l1.17304,-0.56588l-10.05512,-17.2688c-0.83076,-2.838 -0.4816,-5.57796 0.96492,-7.53016c1.11284,-1.505 2.7262,-2.33232 4.54252,-2.33232c2.48196,0 5.1084,1.5652 7.39084,4.40664c2.11904,2.63504 4.39976,3.86312 7.17584,3.86312c1.69764,0 3.64812,-0.46096 6.13524,-1.44652c2.25664,-0.8944 4.30344,-1.34504 6.08708,-1.34504c2.29104,0 4.06092,0.774 4.988,2.1844c0.87892,1.333 0.94772,3.10976 0.1892,4.87104l-8.68084,14.59076l1.18336,0.57104c15.38712,7.41836 28.38516,27.64384 28.38516,44.16272c0,20.26676 -17.17764,20.26676 -38.92876,20.26676z" fill="#00a698"></path><path d="M72.64592,37.38248c2.11044,0 4.4032,1.40524 6.45344,3.956c2.365,2.94292 4.945,4.31376 8.11668,4.31376c1.85416,0 3.94396,-0.48676 6.579,-1.52908c2.1156,-0.83764 4.01448,-1.26248 5.64504,-1.26248c1.87136,0 3.2852,0.58308 3.9818,1.64088c0.63124,0.95804 0.68112,2.26352 0.14276,3.60168l-7.99456,13.45728l-1.3416,2.25836l2.365,1.14036c15.01732,7.2412 27.70404,26.96788 27.70404,43.0774c0,18.1804 -13.631,19.0662 -37.72476,19.0662c-24.09376,0 -37.72476,-0.8858 -37.72476,-19.0662c0,-16.10608 12.68328,-35.83104 27.69716,-43.07396l2.34436,-1.13176l-1.30892,-2.24976l-9.32412,-16.01492c-0.67424,-2.42348 -0.38012,-4.72312 0.817,-6.33992c0.87892,-1.18852 2.14828,-1.84384 3.57244,-1.84384M72.64592,34.97448c-4.96564,0 -8.55528,5.20644 -6.62028,11.54808l9.47204,16.26776c-15.82228,7.6368 -29.05768,28.13748 -29.05768,45.24632c0,21.4742 18.06,21.4742 40.13276,21.4742c22.07276,0 40.13276,0 40.13276,-21.4742c0,-17.11056 -13.23884,-37.61468 -29.06628,-45.24632l8.08056,-13.60348c1.80256,-4.1882 -0.35604,-8.73416 -6.28316,-8.73416c-1.8232,0 -4.00072,0.43 -6.53084,1.43276c-2.19644,0.87032 -4.04888,1.36052 -5.69148,1.36052c-2.37876,0 -4.32064,-1.02684 -6.23844,-3.4142c-2.75716,-3.43312 -5.73276,-4.85728 -8.32996,-4.85728z" fill="#472b29"></path><path d="M90.21228,103.0022c0,-1.16444 -0.2322,-2.09668 -0.93224,-2.5628c-0.69832,-0.69832 -1.63056,-1.16444 -3.26112,-1.86448c-1.39836,-0.46612 -2.795,-1.16444 -3.95944,-1.63056c-1.16444,-0.46612 -2.09668,-1.16444 -2.795,-1.86448c-0.69832,-0.69832 -1.39836,-1.63056 -1.86448,-2.5628c-0.46612,-0.93224 -0.69832,-2.09668 -0.69832,-3.49504c0,-2.32888 0.69832,-4.19336 2.09668,-5.59172c1.39836,-1.39836 3.49504,-2.32888 5.82392,-2.5628v-4.42556h3.26112v4.42556c2.32888,0.2322 4.19336,1.39836 5.59172,3.02892c1.39836,1.63056 2.09668,3.72724 2.09668,6.52224h-5.82392c0,-1.63056 -0.2322,-2.795 -0.93224,-3.72724c-0.69832,-0.93224 -1.63056,-1.16444 -2.795,-1.16444c-1.16444,0 -2.09668,0.2322 -2.5628,0.93224c-0.69832,0.69832 -0.93224,1.39836 -0.93224,2.5628c0,0.93224 0.2322,1.86448 0.93224,2.5628c0.69832,0.69832 1.63056,1.16444 3.26112,1.86448c1.63056,0.69832 3.02892,1.16444 3.95944,1.86448c1.16444,0.46612 1.86448,1.16444 2.5628,1.86448c0.69832,0.69832 1.16444,1.63056 1.63056,2.5628c0.46612,0.93224 0.46612,2.09668 0.46612,3.26112c0,2.32888 -0.69832,4.19336 -2.09668,5.59172c-1.39836,1.39836 -3.49504,2.32888 -6.05612,2.5628v4.19336h-3.26112v-3.96288c-2.79672,-0.2322 -4.8934,-1.39664 -6.52396,-3.0272c-1.63056,-1.63056 -2.32888,-3.95944 -2.32888,-6.75616h5.82392c0,1.63056 0.46612,2.795 1.16444,3.72724c0.69832,0.93224 1.86448,1.39836 3.26112,1.39836c1.16444,0 2.09668,-0.2322 2.795,-0.93224c1.63056,-0.69832 2.09668,-1.63056 2.09668,-2.795z" fill="#ffffff"></path><path d="M66.88564,95.99492c-0.04988,0 -0.09976,-0.00344 -0.15136,-0.01032c-0.65876,-0.08256 -1.12832,-0.68284 -1.04576,-1.34332c1.73892,-13.91652 4.4978,-23.82888 8.94744,-32.14164l0.63124,-1.18164l1.10768,0.75336c10.00868,6.79916 20.14636,0.2838 20.24612,0.21844c0.55556,-0.36292 1.30376,-0.20984 1.66668,0.344c0.36636,0.55556 0.21328,1.30204 -0.344,1.6684c-0.1118,0.07224 -10.83772,6.96944 -21.78552,0.48332c-4.00072,7.88276 -6.43624,17.00392 -8.07884,30.15332c-0.0774,0.6106 -0.59684,1.05608 -1.19368,1.05608z" fill="#472b29"></path><path d="M60.70912,88.79672c-0.11868,0 -0.23908,-0.01892 -0.35948,-0.05504c-0.63468,-0.1978 -0.989,-0.87376 -0.78948,-1.50844c0.18576,-0.59512 4.65088,-14.65612 13.67572,-23.68096c0.46956,-0.46956 1.23324,-0.46956 1.7028,0c0.46956,0.46956 0.46956,1.23324 0,1.7028c-8.61032,8.61032 -13.0376,22.55608 -13.0806,22.6954c-0.15996,0.516 -0.63468,0.84624 -1.14896,0.84624zM96.16004,52.33272c-0.14448,0 -0.2924,-0.03612 -0.42828,-0.11352c-0.41108,-0.23736 -0.55384,-0.76196 -0.31648,-1.17476l2.82424,-4.90716c0.23564,-0.40936 0.76196,-0.5504 1.17476,-0.31648c0.41108,0.23736 0.55384,0.76196 0.31648,1.17476l-2.82424,4.90716c-0.15996,0.2752 -0.44892,0.43 -0.74648,0.43zM106.02768,80.03504c-0.24252,0 -0.48332,-0.1032 -0.6536,-0.301c-1.36568,-1.59616 -2.75716,-2.97388 -4.12972,-4.09188c-0.36808,-0.29928 -0.42312,-0.84108 -0.12384,-1.20916c0.29928,-0.3698 0.8428,-0.42312 1.21088,-0.12384c1.4534,1.18336 2.91712,2.6316 4.34988,4.30688c0.3096,0.3612 0.2666,0.903 -0.0946,1.2126c-0.16168,0.13932 -0.3612,0.2064 -0.559,0.2064zM87.76816,66.90112c-0.14448,0 -0.2924,-0.03612 -0.42828,-0.11352c-0.41108,-0.23736 -0.55384,-0.76196 -0.31648,-1.17476l6.16276,-10.70356c0.23564,-0.41108 0.76196,-0.55384 1.17476,-0.3182c0.4128,0.23564 0.55384,0.76196 0.31648,1.17476l-6.16276,10.70356c-0.15824,0.27692 -0.44892,0.43172 -0.74648,0.43172z" fill="#472b29"></path><path d="M98.46484,73.14128c-0.19264,0 -0.38528,-0.06364 -0.54524,-0.19608c-4.88996,-4.02652 -9.26564,-5.94948 -9.30864,-5.9684c-0.43516,-0.1892 -0.6364,-0.69488 -0.4472,-1.13176c0.18748,-0.43516 0.68972,-0.63812 1.13004,-0.4472c0.18576,0.08084 4.62852,2.0296 9.718,6.21952c0.36636,0.30272 0.41968,0.8428 0.11696,1.20916c-0.17028,0.20812 -0.41624,0.31476 -0.66392,0.31476zM111.99092,121.59884c-0.41452,0 -0.77916,-0.301 -0.84796,-0.7224c-0.07568,-0.46784 0.24252,-0.90988 0.71208,-0.98556c4.9192,-0.79808 6.4586,-4.19336 7.19132,-6.67876c0.95976,-3.26284 0.54868,-8.2388 -1.19196,-14.38608c-0.75164,-2.65568 -2.30824,-5.81704 -4.6268,-9.39636c-0.258,-0.39732 -0.14448,-0.93052 0.25284,-1.18852c0.39732,-0.25456 0.93052,-0.14448 1.18852,0.25456c2.41316,3.7238 4.04028,7.04168 4.83836,9.86248c1.85588,6.55148 2.25492,11.7132 1.1868,15.34068c-0.49708,1.68732 -2.00724,6.82496 -8.56388,7.88792c-0.04816,0.0086 -0.0946,0.01204 -0.13932,0.01204zM111.6022,86.49192c-0.28552,0 -0.56588,-0.14276 -0.72756,-0.40076c-0.64328,-1.02168 -1.26936,-1.74408 -2.65224,-3.26628c-0.31992,-0.3526 -0.2924,-0.89612 0.0602,-1.21432c0.3526,-0.31992 0.89612,-0.2924 1.21604,0.05848c1.42072,1.56864 2.11904,2.37532 2.83112,3.50536c0.25284,0.40076 0.13244,0.93224 -0.26832,1.18508c-0.14448,0.09116 -0.30272,0.13244 -0.45924,0.13244z" fill="#472b29"></path><g fill="#472b29"><path d="M60.55088,58.02248c3.2594,0 7.87072,2.22568 10.60896,4.16756c-1.91952,0.78604 -4.87964,1.53596 -7.94124,1.53596c-2.48024,0 -4.42212,-0.54352 -5.19784,-1.4534c-0.1548,-0.18232 -0.62608,-0.73444 -0.41108,-2.08292c0.25628,-1.30204 0.85484,-2.1672 2.9412,-2.1672M60.55088,55.61276c-2.623,0 -4.70936,1.10424 -5.30276,4.10908c-0.76712,4.76956 3.29036,6.41216 7.97048,6.41216c4.83836,0 10.34236,-1.7544 11.87316,-3.62404c-1.86104,-2.45616 -9.2794,-6.8972 -14.54088,-6.8972z"></path></g></g></g></g></svg>