<svg xmlns="http://www.w3.org/2000/svg" x="0px" y="0px"
width="50" height="50"
viewBox="0 0 172 172"
style=" fill:#000000;"><g fill="none" fill-rule="nonzero" stroke="none" stroke-width="1" stroke-linecap="butt" stroke-linejoin="miter" stroke-miterlimit="10" stroke-dasharray="" stroke-dashoffset="0" font-family="none" font-weight="none" font-size="none" text-anchor="none" style="mix-blend-mode: normal"><path d="M0,172v-172h172v172z" fill="none"></path><g><path d="M22.36,46.44c-1.89986,0 -3.44,1.54014 -3.44,3.44c0,1.89986 1.54014,3.44 3.44,3.44c1.89986,0 3.44,-1.54014 3.44,-3.44c0,-1.89986 -1.54014,-3.44 -3.44,-3.44z" fill="#9b59b6"></path><path d="M132.44,20.64c-0.94993,0 -1.72,0.77007 -1.72,1.72c0,0.94993 0.77007,1.72 1.72,1.72c0.94993,0 1.72,-0.77007 1.72,-1.72c0,-0.94993 -0.77007,-1.72 -1.72,-1.72z" fill="#333333"></path><path d="M86,22.36c-35.1474,0 -63.64,28.4926 -63.64,63.64c0,35.1474 28.4926,63.64 63.64,63.64c35.1474,0 63.64,-28.4926 63.64,-63.64c0,-35.1474 -28.4926,-63.64 -63.64,-63.64z" fill="#34495e"></path><path d="M142.76,18.92c-3.79972,0 -6.88,3.08028 -6.88,6.88c0,3.79972 3.08028,6.88 6.88,6.88c3.79972,0 6.88,-3.08028 6.88,-6.88c0,-3.79972 -3.08028,-6.88 -6.88,-6.88z" fill="#333333"></path><path d="M149.64,37.84c-1.89986,0 -3.44,1.54014 -3.44,3.44c0,1.89986 1.54014,3.44 3.44,3.44c1.89986,0 3.44,-1.54014 3.44,-3.44c0,-1.89986 -1.54014,-3.44 -3.44,-3.44z" fill="#9b59b6"></path><path d="M139.32,127.28c-1.89986,0 -3.44,1.54014 -3.44,3.44c0,1.89986 1.54014,3.44 3.44,3.44c1.89986,0 3.44,-1.54014 3.44,-3.44c0,-1.89986 -1.54014,-3.44 -3.44,-3.44zM25.8,101.48c-3.79972,0 -6.88,3.08028 -6.88,6.88c0,3.79972 3.08028,6.88 6.88,6.88c3.79972,0 6.88,-3.08028 6.88,-6.88c0,-3.79972 -3.08028,-6.88 -6.88,-6.88z" fill="#1abc9c"></path><path d="M43,146.2c-1.89986,0 -3.44,1.54014 -3.44,3.44c0,1.89986 1.54014,3.44 3.44,3.44c1.89986,0 3.44,-1.54014 3.44,-3.44c0,-1.89986 -1.54014,-3.44 -3.44,-3.44z" fill="#9b59b6"></path><path d="M31.82,87.72c-2.37482,0 -4.3,1.92518 -4.3,4.3c0,2.37482 1.92518,4.3 4.3,4.3c2.37482,0 4.3,-1.92518 4.3,-4.3c0,-2.37482 -1.92518,-4.3 -4.3,-4.3z" fill="#ffffff"></path><path d="M36.12,113.52c-0.94993,0 -1.72,0.77007 -1.72,1.72c0,0.94993 0.77007,1.72 1.72,1.72c0.94993,0 1.72,-0.77007 1.72,-1.72c0,-0.94993 -0.77007,-1.72 -1.72,-1.72z" fill="#333333"></path><path d="M137.6,56.76c-0.94993,0 -1.72,0.77007 -1.72,1.72c0,0.94993 0.77007,1.72 1.72,1.72c0.94993,0 1.72,-0.77007 1.72,-1.72c0,-0.94993 -0.77007,-1.72 -1.72,-1.72z" fill="#ffffff"></path><g><path d="M85.441,126.75884l-17.15528,5.69836l0.05332,-62.45492l33.65524,0.03268l-0.05332,62.436z" fill="#f15b6c"></path><path d="M69.54304,71.208l31.24724,0.02924l-0.0516,59.54296l-14.51852,-5.02412l-0.77228,-0.2666l-0.77572,0.258l-15.18244,5.04304l0.05332,-59.58252M67.13676,68.79828l-0.05676,65.32904l18.3524,-6.09568l17.71084,6.12836l0.05676,-65.32904l-36.06324,-0.03268z" fill="#472b29"></path><path d="M96.65368,128.01444c-0.00172,0 -0.00344,0 -0.00516,0c-0.23736,-0.00344 -0.42828,-0.1978 -0.42484,-0.43688l0.10492,-7.36332c0.00344,-0.23564 0.19436,-0.42312 0.43,-0.42312c0.00172,0 0.00344,0 0.00516,0c0.23736,0.00344 0.42828,0.1978 0.42484,0.43688l-0.10492,7.36332c-0.00344,0.23392 -0.19436,0.42312 -0.43,0.42312zM96.83428,117.03224c-0.00172,0 -0.00344,0 -0.00516,0c-0.23736,-0.00344 -0.42828,-0.1978 -0.42484,-0.43688l0.0516,-3.63436c0.00344,-0.23564 0.19436,-0.42312 0.43,-0.42312c0.00172,0 0.00344,0 0.00516,0c0.23736,0.00344 0.42828,0.1978 0.42484,0.43688l-0.0516,3.63436c-0.00344,0.23564 -0.19436,0.42312 -0.43,0.42312zM96.94264,109.33352c-0.00172,0 -0.00344,0 -0.00516,0c-0.23736,-0.00344 -0.42828,-0.1978 -0.42484,-0.43688l0.13072,-9.25704c0.00344,-0.23564 0.19436,-0.42312 0.43,-0.42312c0.00172,0 0.00344,0 0.00516,0c0.23736,0.00344 0.42828,0.1978 0.42484,0.43688l-0.13072,9.25704c-0.00344,0.23564 -0.19436,0.42312 -0.43,0.42312zM72.75428,127.5552c-0.00172,0 -0.00344,0 -0.00516,0c-0.23736,-0.00344 -0.42828,-0.1978 -0.42484,-0.43688l0.0516,-3.63608c0.00344,-0.23564 0.19436,-0.42312 0.43,-0.42312c0.00172,0 0.00344,0 0.00516,0c0.23736,0.00344 0.42828,0.1978 0.42484,0.43688l-0.0516,3.63608c-0.00344,0.23564 -0.19436,0.42312 -0.43,0.42312zM73.0484,106.93412c-0.00172,0 -0.00344,0 -0.00516,0c-0.23736,-0.00344 -0.42828,-0.1978 -0.42484,-0.43688l0.0516,-3.50708c0.00344,-0.23564 0.19608,-0.42312 0.43,-0.42312c0.00172,0 0.00344,0 0.00516,0c0.23736,0.00344 0.42828,0.1978 0.42484,0.43688l-0.0516,3.50708c-0.00344,0.23564 -0.19608,0.42312 -0.43,0.42312z" fill="#472b29"></path><g fill="#472b29"><path d="M72.96928,119.20976c-0.00172,0 -0.00344,0 -0.00688,0c-0.23736,-0.00344 -0.42656,-0.1978 -0.42312,-0.43688l0.13072,-8.76856c0.00344,-0.23564 0.19608,-0.42312 0.43,-0.42312c0.00172,0 0.00344,0 0.00688,0c0.23736,0.00344 0.42656,0.1978 0.42312,0.43688l-0.13072,8.76856c-0.00344,0.23392 -0.19608,0.42312 -0.43,0.42312z"></path></g></g><g><path d="M91.56076,106.03972c-0.59512,0 -1.1696,-0.13244 -1.70796,-0.39216l-2.15,-1.0406c-0.85656,-0.4128 -1.80944,-0.63124 -2.75888,-0.63124c-0.94944,0 -1.90232,0.21844 -2.75888,0.63124l-2.15,1.0406c-0.53664,0.258 -1.11112,0.39216 -1.70624,0.39216c-1.15928,0 -2.25492,-0.5074 -3.0014,-1.3932l-1.54112,-1.82664c-1.20572,-1.4276 -2.96872,-2.24632 -4.83664,-2.24632c0,0 -2.59204,0.07912 -2.59376,0.07912c-1.85932,0 -3.4056,-1.16444 -3.88892,-2.83112l-0.66564,-2.29448c-0.5418,-1.86964 -1.88856,-3.3626 -3.69112,-4.10048l-2.21192,-0.89956c-1.66152,-0.67768 -2.65224,-2.39252 -2.40628,-4.16756l0.32508,-2.36672c0.26488,-1.92984 -0.35604,-3.84248 -1.70452,-5.24772l-1.65292,-1.72344c-1.24184,-1.29516 -1.44996,-3.26112 -0.50224,-4.78676l1.25904,-2.03132c1.02684,-1.65464 1.23668,-3.655 0.5762,-5.48508l-0.81012,-2.24804c-0.60888,-1.68732 0.00344,-3.569 1.4878,-4.57692l1.97628,-1.3416c1.61164,-1.09392 2.61612,-2.83456 2.75888,-4.77816l0.17544,-2.3822c0.13072,-1.7888 1.45512,-3.2594 3.22156,-3.5776l2.34952,-0.41968c1.9178,-0.34572 3.54492,-1.52736 4.4634,-3.24564l1.12832,-2.10356c0.68456,-1.27796 2.00896,-2.0726 3.45892,-2.0726c0.31476,0 0.63124,0.03784 0.93912,0.11352l2.32028,0.56932c0.49536,0.12212 1.00448,0.18232 1.5136,0.18232v0c1.39836,0 2.7778,-0.47128 3.88204,-1.32956l1.88512,-1.46544c0.69488,-0.53836 1.52736,-0.82388 2.40628,-0.82388c0.87892,0 1.71312,0.2838 2.40628,0.82388l1.88684,1.46544c1.10424,0.85828 2.48196,1.32956 3.88204,1.32956c0.50912,0 1.01824,-0.0602 1.5136,-0.18232l2.31856,-0.56932c0.30788,-0.07568 0.62436,-0.11352 0.93912,-0.11352c1.44824,0 2.77436,0.79464 3.45892,2.0726l1.12832,2.10528c0.91848,1.71656 2.5456,2.8982 4.4634,3.24392l2.35124,0.4214c1.76472,0.3182 3.08912,1.78708 3.22156,3.57588l0.17372,2.3822c0.14276,1.9436 1.14724,3.68596 2.75888,4.77816l1.97628,1.3416c1.48436,1.00792 2.09496,2.8896 1.48608,4.57692l-0.81012,2.24804c-0.66048,1.83008 -0.45064,3.83216 0.5762,5.48508l1.25904,2.03132c0.946,1.52564 0.7396,3.4916 -0.50224,4.78676l-1.65292,1.72344c-1.34848,1.40352 -1.97112,3.31788 -1.70452,5.246l0.32508,2.36844c0.24424,1.77504 -0.74648,3.48988 -2.40628,4.16756l-2.2102,0.89956c-1.80428,0.73788 -3.15104,2.23256 -3.69284,4.10048l-0.66564,2.29448c-0.48332,1.6684 -2.03476,2.83112 -3.76852,2.83112l-2.71588,-0.08084c-1.86792,0 -3.63092,0.81872 -4.83664,2.24804l-1.54112,1.8232c-0.75336,0.88924 -1.84728,1.39664 -3.00656,1.39664z" fill="#f1c40f"></path><path d="M84.94564,36.42788c0.60888,0 1.1868,0.1978 1.6684,0.57276l1.88684,1.46544c1.3158,1.02168 2.95668,1.5824 4.62164,1.5824c0.60544,0 1.21088,-0.07224 1.80084,-0.21844l2.31856,-0.57104c0.21328,-0.0516 0.43172,-0.07912 0.65016,-0.07912c1.00448,0 1.92296,0.5504 2.39768,1.4362l1.12832,2.10528c1.09392,2.04336 3.03064,3.4486 5.31136,3.85968l2.35124,0.4214c1.22464,0.22016 2.1414,1.24012 2.23256,2.48024l0.17372,2.3822c0.16856,2.31168 1.36568,4.38256 3.28176,5.68632l1.97628,1.3416c1.02856,0.69832 1.4534,2.0038 1.03028,3.1734l-0.81012,2.24804c-0.78604,2.18096 -0.53492,4.55972 0.68628,6.52912l1.25904,2.02788c0.65532,1.0578 0.51256,2.42176 -0.34916,3.3196l-1.65464,1.72344c-1.60476,1.67184 -2.34436,3.9474 -2.02788,6.2436l0.32508,2.36672c0.16856,1.23152 -0.51772,2.42004 -1.6684,2.8896l-2.21192,0.90128c-2.14484,0.87548 -3.74616,2.65396 -4.39288,4.87792l-0.66564,2.29448c-0.3354,1.15584 -1.4104,1.96252 -2.61268,1.96252l-0.08772,-0.00172l-2.38564,-0.07568l-0.24252,-0.00344c-2.22396,0 -4.32064,0.97352 -5.75684,2.67288l-1.54112,1.82492c-0.51772,0.61404 -1.27624,0.96664 -2.0812,0.96664c-0.4128,0 -0.81012,-0.09116 -1.18336,-0.27176l-2.15,-1.03888c-1.01652,-0.49192 -2.15172,-0.75336 -3.28348,-0.75336c-1.13004,0 -2.26524,0.25972 -3.28176,0.75336l-2.15,1.03888c-0.37324,0.1806 -0.77056,0.27176 -1.18336,0.27176c-0.80496,0 -1.56348,-0.3526 -2.0812,-0.96664l-1.54112,-1.82492c-1.43448,-1.69936 -3.53288,-2.67288 -5.75684,-2.67288l-0.2408,0.00344l-2.3822,0.0774l-0.08772,0.00172c-1.20228,0 -2.27728,-0.80668 -2.61268,-1.96252l-0.66564,-2.29448c-0.645,-2.22396 -2.24632,-4.00416 -4.39288,-4.87792l-2.21192,-0.90128c-1.15068,-0.46956 -1.83696,-1.65808 -1.6684,-2.8896l0.32508,-2.36672c0.31476,-2.29448 -0.42484,-4.57176 -2.0296,-6.2436l-1.65292,-1.72344c-0.86172,-0.89784 -1.00448,-2.2618 -0.34916,-3.3196l1.25904,-2.0296c1.2212,-1.9694 1.47232,-4.34988 0.68628,-6.52912l-0.81012,-2.24804c-0.4214,-1.1696 0.00172,-2.47336 1.032,-3.1734l1.97628,-1.3416c1.9178,-1.30204 3.1132,-3.37464 3.28176,-5.68632l0.17372,-2.3822c0.09116,-1.24012 1.00964,-2.26008 2.23256,-2.48024l2.35124,-0.4214c2.28072,-0.40936 4.21744,-1.81632 5.31136,-3.85968l1.12832,-2.10528c0.47472,-0.8858 1.3932,-1.4362 2.39768,-1.4362c0.21844,0 0.43688,0.02752 0.65016,0.07912l2.32028,0.57104c0.58824,0.14448 1.19368,0.21844 1.80084,0.21844c1.66496,0 3.30584,-0.56244 4.62164,-1.5824l1.88684,-1.46544c0.4816,-0.37496 1.0578,-0.57276 1.6684,-0.57276M84.94564,34.01988c-1.1094,0 -2.22052,0.35776 -3.14416,1.07672l-1.88684,1.46544c-0.90816,0.7052 -2.01756,1.07672 -3.14588,1.07672c-0.40936,0 -0.82044,-0.04816 -1.22464,-0.14792l-2.32028,-0.57104c-0.40764,-0.10148 -0.81872,-0.14792 -1.22464,-0.14792c-1.8576,0 -3.612,1.01308 -4.52016,2.70728l-1.12832,2.10528c-0.7396,1.38116 -2.07088,2.34952 -3.61372,2.62644l-2.35124,0.4214c-2.30652,0.41452 -4.03856,2.33748 -4.20884,4.67496l-0.17372,2.3822c-0.11352,1.56348 -0.9374,2.98764 -2.23428,3.87l-1.97628,1.3416c-1.93844,1.3158 -2.73824,3.77712 -1.9436,5.98216l0.81012,2.24804c0.53148,1.47404 0.35948,3.11148 -0.46784,4.44276l-1.25904,2.0296c-1.23496,1.99176 -0.96492,4.56488 0.65704,6.25564l1.65464,1.72344c1.08532,1.13176 1.59444,2.69524 1.38116,4.2484l-0.32508,2.36672c-0.3182,2.322 0.97524,4.56316 3.14416,5.44724l2.21192,0.90128c1.45168,0.59168 2.55248,1.8146 2.98936,3.3196l0.66564,2.29448c0.63812,2.19816 2.65052,3.69972 4.92608,3.69972c0.05504,0 0.10836,0 0.1634,-0.00172l2.38736,-0.07568c0.05504,-0.00172 0.11008,-0.00172 0.16512,-0.00172c1.50672,0 2.9412,0.66392 3.91644,1.81976l1.54112,1.82492c0.99932,1.18336 2.44584,1.81976 3.91988,1.81976c0.75508,0 1.51704,-0.16684 2.23256,-0.51256l2.15,-1.03888c0.7052,-0.34228 1.46888,-0.51256 2.23428,-0.51256c0.76368,0 1.52908,0.17028 2.23428,0.51256l2.15,1.03888c0.7138,0.34572 1.47748,0.51256 2.23256,0.51256c1.47404,0 2.92056,-0.6364 3.91988,-1.81976l1.54112,-1.82492c0.97524,-1.15584 2.40972,-1.81976 3.91644,-1.81976c0.05504,0 0.11008,0 0.16512,0.00172l2.38736,0.07568c0.05504,0.00172 0.10836,0.00172 0.1634,0.00172c2.27556,0 4.28796,-1.50328 4.92608,-3.69972l0.66564,-2.29448c0.43688,-1.505 1.53768,-2.72792 2.98936,-3.3196l2.21192,-0.90128c2.16892,-0.88408 3.46408,-3.12524 3.14416,-5.44724l-0.32508,-2.36672c-0.21328,-1.55316 0.29584,-3.11836 1.38116,-4.2484l1.65464,-1.72344c1.62196,-1.69076 1.892,-4.26388 0.65704,-6.25564l-1.25904,-2.0296c-0.8256,-1.33128 -0.9976,-2.96872 -0.46784,-4.44276l0.81012,-2.24804c0.79464,-2.20332 -0.00516,-4.66464 -1.9436,-5.98216l-1.97628,-1.3416c-1.29688,-0.88064 -2.11904,-2.30652 -2.23428,-3.87l-0.17372,-2.3822c-0.17028,-2.33576 -1.90232,-4.26044 -4.20884,-4.67496l-2.35296,-0.4214c-1.54284,-0.27692 -2.87412,-1.24528 -3.61372,-2.62644l-1.12832,-2.10528c-0.90816,-1.6942 -2.66256,-2.70728 -4.52016,-2.70728c-0.40592,0 -0.817,0.04816 -1.22464,0.14792l-2.32028,0.57104c-0.4042,0.09976 -0.81528,0.14792 -1.22464,0.14792c-1.12832,0 -2.236,-0.37152 -3.14588,-1.07672l-1.88684,-1.46544c-0.92708,-0.71724 -2.03648,-1.07672 -3.14588,-1.07672z" fill="#472b29"></path></g><g fill="#472b29"><path d="M111.06556,64.04764c-0.36808,0 -0.70864,-0.23736 -0.82216,-0.60888c-0.11696,-0.38356 -0.24424,-0.76368 -0.3784,-1.14036c-0.52288,-1.45856 -1.18336,-2.881 -1.96252,-4.22948c-0.23908,-0.40936 -0.09804,-0.9374 0.31304,-1.17476c0.41108,-0.2408 0.9374,-0.09976 1.17476,0.31476c0.83076,1.43792 1.53596,2.95496 2.09324,4.50984c0.14276,0.40076 0.27864,0.80668 0.4042,1.21604c0.13932,0.45408 -0.11524,0.93396 -0.56932,1.07328c-0.08428,0.02752 -0.16856,0.03956 -0.25284,0.03956z"></path></g><g fill="#472b29"><path d="M58.18932,65.95512c-0.06192,0 -0.12384,-0.00688 -0.18576,-0.02064c-0.4644,-0.1032 -0.7568,-0.56072 -0.6536,-1.02684c2.8294,-12.79336 14.43424,-22.07964 27.59568,-22.07964c8.08744,0 15.80336,3.4658 21.16804,9.50644c0.4042,0.4558 0.79464,0.92708 1.17132,1.40696c0.29068,0.37668 0.2236,0.91504 -0.14964,1.20744c-0.37668,0.2924 -0.91676,0.22188 -1.20744,-0.14964c-0.3526,-0.45408 -0.71896,-0.89612 -1.09908,-1.3244c-5.0396,-5.67428 -12.28596,-8.92852 -19.88148,-8.92852c-12.35992,0 -23.25956,8.71868 -25.91696,20.73288c-0.09116,0.40248 -0.44548,0.67596 -0.84108,0.67596z"></path></g><g fill="#472b29"><path d="M84.94564,99.17864c-13.7772,0 -25.48524,-9.80572 -27.84164,-23.31804c-0.08084,-0.46784 0.2322,-0.91332 0.70004,-0.99416c0.473,-0.08944 0.91332,0.23048 0.99588,0.69832c2.2102,12.685 13.20616,21.89388 26.14572,21.89388c14.63376,0 26.5396,-11.86628 26.5396,-26.45532c0,-1.32784 -0.09976,-2.66428 -0.29756,-3.96976c-0.07052,-0.46784 0.25284,-0.90644 0.7224,-0.97696c0.473,-0.0774 0.90816,0.25112 0.97868,0.7224c0.20984,1.38976 0.31648,2.81048 0.31648,4.22432c0,15.53504 -12.67812,28.17532 -28.2596,28.17532z"></path></g><g fill="#472b29"><path d="M74.60328,52.89172c-0.14792,0 -0.2924,-0.0774 -0.37152,-0.215c-0.11868,-0.20468 -0.04816,-0.46784 0.15652,-0.58824c1.11972,-0.64844 2.3048,-1.19712 3.5174,-1.63228c0.31304,-0.11008 0.62952,-0.21672 0.94772,-0.31476c0.22876,-0.05676 0.46784,0.05848 0.53836,0.28552c0.0688,0.22704 -0.05848,0.46612 -0.28552,0.53836c-0.30616,0.0946 -0.60888,0.19264 -0.90988,0.301c-1.16444,0.41796 -2.30136,0.946 -3.37808,1.56864c-0.06708,0.03784 -0.14104,0.05676 -0.215,0.05676z"></path></g><g fill="#472b29"><path d="M80.48568,92.70628c-0.03096,0 -0.06192,-0.00344 -0.09288,-0.01032c-9.98288,-2.20848 -17.22752,-11.266 -17.22752,-21.5344c0,-6.31068 2.70384,-12.33068 7.41836,-16.51544c0.35604,-0.3182 0.7224,-0.62264 1.09908,-0.91504c0.18748,-0.1462 0.45752,-0.11352 0.60372,0.07568c0.1462,0.18576 0.1118,0.45752 -0.07396,0.60372c-0.3612,0.28208 -0.7138,0.57448 -1.05608,0.87892c-4.53048,4.02308 -7.1294,9.80744 -7.1294,15.87388c0,9.86764 6.96256,18.57084 16.555,20.69332c0.2322,0.0516 0.3784,0.28036 0.3268,0.51256c-0.04816,0.20124 -0.22532,0.33712 -0.42312,0.33712z"></path></g><g fill="#472b29"><path d="M88.8638,92.89376c-0.20468,0 -0.387,-0.14792 -0.42312,-0.35604c-0.04128,-0.23392 0.11524,-0.45752 0.34916,-0.49708c10.12908,-1.76472 17.48208,-10.54532 17.48208,-20.87736c0,-11.68396 -9.47548,-21.18868 -21.12332,-21.18868c-1.06296,0 -2.12936,0.07912 -3.16824,0.23736c-0.22876,0.0516 -0.45408,-0.12556 -0.4902,-0.3612c-0.03612,-0.23564 0.12556,-0.45408 0.35948,-0.48848c1.08188,-0.16512 2.19128,-0.24768 3.29724,-0.24768c12.12084,0 21.98332,9.89172 21.98332,22.04868c0,10.75172 -7.65228,19.88836 -18.19416,21.7236c-0.02408,0.00516 -0.04816,0.00688 -0.07224,0.00688z"></path></g></g></g></svg>