<svg xmlns="http://www.w3.org/2000/svg" x="0px" y="0px"
width="50" height="50"
viewBox="0 0 172 172"
style=" fill:#000000;"><g fill="none" fill-rule="nonzero" stroke="none" stroke-width="1" stroke-linecap="butt" stroke-linejoin="miter" stroke-miterlimit="10" stroke-dasharray="" stroke-dashoffset="0" font-family="none" font-weight="none" font-size="none" text-anchor="none" style="mix-blend-mode: normal"><path d="M0,172v-172h172v172z" fill="none"></path><g><path d="M134.16,22.36c-0.94993,0 -1.72,0.77007 -1.72,1.72c0,0.94993 0.77007,1.72 1.72,1.72c0.94993,0 1.72,-0.77007 1.72,-1.72c0,-0.94993 -0.77007,-1.72 -1.72,-1.72z" fill="#666666"></path><path d="M86,20.64c-36.09733,0 -65.36,29.26267 -65.36,65.36c0,36.09733 29.26267,65.36 65.36,65.36c36.09733,0 65.36,-29.26267 65.36,-65.36c0,-36.09733 -29.26267,-65.36 -65.36,-65.36z" fill="#34495e"></path><path d="M144.48,20.64c-3.79972,0 -6.88,3.08028 -6.88,6.88c0,3.79972 3.08028,6.88 6.88,6.88c3.79972,0 6.88,-3.08028 6.88,-6.88c0,-3.79972 -3.08028,-6.88 -6.88,-6.88z" fill="#666666"></path><path d="M24.08,41.28c-1.89986,0 -3.44,1.54014 -3.44,3.44c0,1.89986 1.54014,3.44 3.44,3.44c1.89986,0 3.44,-1.54014 3.44,-3.44c0,-1.89986 -1.54014,-3.44 -3.44,-3.44z" fill="#9b59b6"></path><path d="M134.16,129c-1.89986,0 -3.44,1.54014 -3.44,3.44c0,1.89986 1.54014,3.44 3.44,3.44c1.89986,0 3.44,-1.54014 3.44,-3.44c0,-1.89986 -1.54014,-3.44 -3.44,-3.44zM29.24,127.28c-3.79972,0 -6.88,3.08028 -6.88,6.88c0,3.79972 3.08028,6.88 6.88,6.88c3.79972,0 6.88,-3.08028 6.88,-6.88c0,-3.79972 -3.08028,-6.88 -6.88,-6.88z" fill="#95a5a6"></path><path d="M41.28,139.32c-1.89986,0 -3.44,1.54014 -3.44,3.44c0,1.89986 1.54014,3.44 3.44,3.44c1.89986,0 3.44,-1.54014 3.44,-3.44c0,-1.89986 -1.54014,-3.44 -3.44,-3.44z" fill="#9b59b6"></path><path d="M114.38,130.72c-2.37482,0 -4.3,1.92518 -4.3,4.3c0,2.37482 1.92518,4.3 4.3,4.3c2.37482,0 4.3,-1.92518 4.3,-4.3c0,-2.37482 -1.92518,-4.3 -4.3,-4.3zM27.52,80.84c-0.94993,0 -1.72,0.77007 -1.72,1.72c0,0.94993 0.77007,1.72 1.72,1.72c0.94993,0 1.72,-0.77007 1.72,-1.72c0,-0.94993 -0.77007,-1.72 -1.72,-1.72z" fill="#ffffff"></path><path d="M147.92,51.6c-0.94993,0 -1.72,0.77007 -1.72,1.72c0,0.94993 0.77007,1.72 1.72,1.72c0.94993,0 1.72,-0.77007 1.72,-1.72c0,-0.94993 -0.77007,-1.72 -1.72,-1.72z" fill="#666666"></path><path d="M137.6,110.08c-1.89986,0 -3.44,1.54014 -3.44,3.44c0,1.89986 1.54014,3.44 3.44,3.44c1.89986,0 3.44,-1.54014 3.44,-3.44c0,-1.89986 -1.54014,-3.44 -3.44,-3.44z" fill="#ffffff"></path><path d="M86,44.204c-23.08329,0 -41.796,18.71271 -41.796,41.796c0,23.08329 18.71271,41.796 41.796,41.796c23.08329,0 41.796,-18.71271 41.796,-41.796c0,-23.08329 -18.71271,-41.796 -41.796,-41.796z" fill="#2ecc71"></path><path d="M86,129c-23.736,0 -43,-19.264 -43,-43c0,-23.736 19.264,-43 43,-43c23.736,0 43,19.264 43,43c0,23.736 -19.264,43 -43,43zM86,45.58c-22.36,0 -40.42,18.06 -40.42,40.42c0,22.36 18.06,40.42 40.42,40.42c22.36,0 40.42,-18.06 40.42,-40.42c0,-22.36 -18.06,-40.42 -40.42,-40.42z" fill="#472b29"></path><path d="M85.828,51.084c-19.37857,0 -35.088,15.70943 -35.088,35.088c0,19.37857 15.70943,35.088 35.088,35.088c19.37857,0 35.088,-15.70943 35.088,-35.088c0,-19.37857 -15.70943,-35.088 -35.088,-35.088z" fill="#2ecc71"></path><path d="M119.368,77.056c-0.344,0 -0.688,-0.172 -0.86,-0.688c-0.172,-0.516 -0.344,-1.032 -0.516,-1.548c-0.688,-1.892 -1.548,-3.784 -2.58,-5.504c-0.172,-0.344 -0.172,-0.86 0.344,-1.204c0.344,-0.172 0.86,-0.172 1.204,0.344c1.032,1.892 1.892,3.784 2.58,5.676c0.172,0.516 0.344,1.032 0.516,1.548c0.172,0.516 -0.172,0.86 -0.516,1.032c0,0.172 0,0.344 -0.172,0.344z" fill="#472b29"></path><path d="M86,121.948c-19.78,0 -35.948,-15.996 -35.948,-35.776c0,-19.78 16.168,-35.776 35.948,-35.776c10.32,0 20.124,4.472 26.832,12.04c0.516,0.516 1.032,1.204 1.548,1.72c0.344,0.344 0.172,0.86 -0.172,1.204c-0.344,0.344 -0.86,0.172 -1.204,-0.172c-0.516,-0.516 -0.86,-1.204 -1.376,-1.72c-6.536,-7.224 -15.824,-11.524 -25.628,-11.524c-18.92,0 -34.228,15.308 -34.228,34.056c0,18.92 15.308,34.228 34.228,34.228c18.92,0 34.228,-15.308 34.228,-34.056c0,-1.72 -0.172,-3.44 -0.344,-5.16c0,-0.516 0.172,-0.86 0.688,-1.032c0.516,0 0.86,0.172 1.032,0.688c0.344,1.72 0.344,3.612 0.344,5.332c0,19.78 -16.168,35.948 -35.948,35.948z" fill="#472b29"></path><g><path d="M83.248,100.448c-0.86,0 -1.548,-0.344 -2.236,-0.86l-14.448,-14.448c-1.376,-1.204 -1.376,-3.268 -0.172,-4.644c0.688,-0.688 1.548,-1.032 2.408,-1.032c0.86,0 1.548,0.344 2.236,0.86l12.212,12.384l20.64,-20.64c0.688,-0.516 1.376,-0.86 2.236,-0.86c0.86,0 1.72,0.344 2.408,1.032c0.516,0.688 0.86,1.548 0.86,2.408c0,0.86 -0.344,1.72 -1.032,2.236l-22.704,22.532c-0.688,0.688 -1.548,1.032 -2.408,1.032z" fill="#ceccbe"></path><path d="M106.124,71.896c0.688,0 1.204,0.172 1.72,0.688c0.86,1.032 0.86,2.408 -0.172,3.44l-22.704,22.876c-0.516,0.516 -1.032,0.688 -1.72,0.688c-0.516,0 -1.204,-0.172 -1.548,-0.688l-14.448,-14.448c-1.032,-0.86 -1.032,-2.408 -0.172,-3.44c0.516,-0.516 1.204,-0.86 1.72,-0.86c0.516,0 1.204,0.172 1.548,0.688l12.728,12.9l21.328,-21.328c0.516,-0.344 1.204,-0.516 1.72,-0.516M106.124,70.176v0c-1.032,0 -2.064,0.344 -2.752,1.204l-20.124,19.952l-11.524,-11.696v0v0c-0.688,-0.688 -1.72,-1.032 -2.752,-1.032c-1.204,0 -2.236,0.516 -3.096,1.376c-0.688,0.86 -1.204,1.892 -1.032,2.924c0,1.032 0.516,2.064 1.376,2.924l14.448,14.448c0.86,0.688 1.72,1.204 2.752,1.204c1.032,0 2.064,-0.344 2.752,-1.204l22.876,-22.876c0.688,-0.688 1.204,-1.72 1.204,-2.924c0,-1.204 -0.344,-2.236 -1.204,-2.924c-0.688,-1.032 -1.72,-1.376 -2.924,-1.376z" fill="#472b29"></path></g></g></g></svg>